<svg width="731" height="562" viewBox="0 0 731 562" fill="none" xmlns="http://www.w3.org/2000/svg">
<path d="M567.676 339C638.176 364 692.676 238.5 692.676 238.5C692.676 238.5 775.936 20.572 692.676 25C666.75 26.3789 656.632 48.3544 630.676 49C591.885 49.965 582.48 1.05372 543.676 1.00005C488.69 0.923991 495.34 91.0485 440.676 97C402.863 101.117 386.078 63.3001 348.176 66.5C302.09 70.391 260.208 86.5846 249.176 131.5C242.905 157.033 265.979 172.475 259.676 198C247.655 246.686 173.96 216.923 146.676 259C126.465 290.17 143.515 318.886 126.676 352C106.087 392.492 63.8321 393.047 44.1764 434C28.7147 466.215 11.1143 492.337 27.6764 524C45.1379 557.382 79.8286 564.943 117.176 560C165.244 553.639 158.144 489.8 202.176 469.5C251.295 446.855 281.676 487.5 340.676 469.5C399.676 451.5 380.676 366.5 440.676 339C500.676 311.5 497.176 314 567.676 339Z" fill="#FBF5F3" fill-opacity="0.03" stroke="#FBF5F3" stroke-opacity="0.03"/>
<circle cx="581" cy="425" r="5" fill="#ED7D3A"/>
<circle cx="319" cy="365" r="5" fill="#FBF5F3" fill-opacity="0.1"/>
<circle cx="442" cy="104" r="5" fill="#ED7D3A"/>
<circle cx="679" cy="192" r="5" fill="#ED7D3A"/>
<circle cx="314" cy="127" r="5" fill="#ED7D3A"/>
<circle cx="571" cy="237" r="5" fill="#FBF5F3" fill-opacity="0.1"/>
<circle cx="221" cy="99" r="5" fill="#FBF5F3" fill-opacity="0.1"/>
<circle cx="147" cy="370" r="5" fill="#ED7D3A"/>
<circle cx="281" cy="543" r="5" fill="#FBF5F3" fill-opacity="0.1"/>
<circle cx="5" cy="418" r="5" fill="#ED7D3A"/>
<circle cx="103" cy="185" r="5" fill="#ED7D3A"/>
</svg>
