<svg width="81" height="38" viewBox="0 0 81 38" fill="none" xmlns="http://www.w3.org/2000/svg">
<path d="M11.4284 8.21901L10.3542 4.19794C9.85045 2.31196 8.14204 1 6.18993 1C3.18869 1 1.10614 3.99068 2.14726 6.80556L11.3926 31.8022C12.6591 35.2265 15.924 37.5 19.575 37.5C22.8967 37.5 25.9303 35.6136 27.3994 32.6345L39.9076 7.27076C41.3325 4.38138 39.2298 1 36.0082 1C34.1982 1 32.5776 2.1213 31.9395 3.81506L29.9343 9.13806C26.5992 17.9913 13.8699 17.3591 11.4284 8.21901Z" fill="#FBF5F3" stroke="#FBF5F3"/>
<path d="M63 1H75.5652C78.0145 1 80 2.98552 80 5.43478C80 7.88405 78.0145 9.86957 75.5652 9.86957H60.6087C59.168 9.86957 58 11.0375 58 12.4783C58 13.919 59.168 15.087 60.6087 15.087H76.087C78.2481 15.087 80 16.8389 80 19C80 21.1611 78.2481 22.913 76.087 22.913H60.6087C59.168 22.913 58 24.081 58 25.5217C58 26.9625 59.168 28.1304 60.6087 28.1304H75.5652C78.0145 28.1304 80 30.116 80 32.5652C80 35.0145 78.0145 37 75.5652 37H63C53.6112 37 46 29.3888 46 20V18C46 8.61116 53.6112 1 63 1Z" fill="#FBF5F3" stroke="#FBF5F3"/>
</svg>
