<svg width="797" height="331" viewBox="0 0 797 331" fill="none" xmlns="http://www.w3.org/2000/svg">
<path d="M57.1303 287.307L38.856 286.089L44.9474 313.48L65.6581 304.959L57.1303 287.307Z" fill="#FFB9B9"/>
<path d="M224.645 236.176L182.005 194.785L157.639 213.655L109.517 271.481L114.999 280.002L173.477 240.437L213.071 292.176L250.838 273.307L224.645 236.176Z" fill="#2F2E41"/>
<path opacity="0.1" d="M224.645 236.176L182.005 194.785L157.639 213.655L109.517 271.481L114.999 280.002L173.477 240.437L213.071 292.176L250.838 273.307L224.645 236.176Z" fill="white"/>
<path d="M228.3 263.568L222.818 267.828L178.35 252.611L167.995 248.35L147.284 252.611C147.284 252.611 147.284 235.568 166.776 236.177L186.878 241.046L210.635 242.872L228.3 263.568Z" fill="#FFB9B9"/>
<path d="M267.895 308.611L254.493 317.132H238.655L164.949 289.741L57.1303 309.219L54.0842 286.089L152.766 242.872L239.265 271.481L267.895 308.611Z" fill="#E7E7E7"/>
<path d="M181.396 200.264L172.259 202.09L170.268 199.769C168.691 197.931 167.693 195.669 167.397 193.267C167.101 190.865 167.521 188.429 168.604 186.264L194.188 152.786C194.188 152.786 201.498 136.351 213.072 143.047C224.645 149.742 203.325 160.699 203.325 160.699L190.533 180.786L191.751 191.133L181.396 200.264Z" fill="#FFB9B9"/>
<path d="M239.265 160.699C252.385 160.699 263.022 150.071 263.022 136.96C263.022 123.849 252.385 113.221 239.265 113.221C226.144 113.221 215.508 123.849 215.508 136.96C215.508 150.071 226.144 160.699 239.265 160.699Z" fill="#FFB9B9"/>
<path d="M228.605 154.308L239.569 180.481L265.763 169.525C265.763 169.525 257.235 148.829 257.235 148.221C257.235 147.612 228.605 154.308 228.605 154.308Z" fill="#FFB9B9"/>
<path d="M300.734 231.739C300.733 246.066 298.474 260.303 294.039 273.927L292.261 279.394L283.732 318.35L274.595 320.785L267.895 312.263L254.493 302.524L244.747 286.698L236.39 272.783L233.783 268.437L224.645 222.785L189.924 203.307L178.35 201.481L180.787 194.786L191.142 180.786L201.498 179.568L204.543 177.134L206.98 178.351L216.726 172.873L219.772 174.09L237.584 175.746L248.402 173.481L263.96 165.136L270.331 166.177L292.26 184.438C297.867 199.579 300.736 215.595 300.734 231.739Z" fill="#575A89"/>
<path d="M44.4653 296.732C44.4653 296.732 49.9213 287.492 47.6168 286.413C45.3123 285.334 35.5256 281.034 35.5256 281.034L21.1735 276.281C21.1735 276.281 0.464355 245.526 0.00978577 272.271C-0.444784 299.016 15.0886 305.445 15.0886 305.445C15.0886 305.445 28.9425 335.237 36.7901 330.487C44.6377 325.736 52.4905 309.609 52.4905 309.609C52.4905 309.609 38.3388 302.007 44.4653 296.732Z" fill="#2F2E41"/>
<path opacity="0.1" d="M294.088 226.437L270.94 241.655L236.39 272.783L233.783 268.437L226.473 231.916H228.3L247.184 197.221L294.088 226.437Z" fill="black"/>
<path d="M247.184 193.568L228.3 228.263H221.6L217.336 240.437L207.59 242.872L233.783 271.481L270.94 238.003L294.088 222.785L247.184 193.568Z" fill="#575A89"/>
<path d="M220.787 119.309L218.213 120.299C217.817 120.031 217.479 119.687 217.218 119.286C216.956 118.886 216.778 118.438 216.692 117.968C216.607 117.498 216.616 117.015 216.719 116.549C216.823 116.083 217.018 115.641 217.294 115.251L212.538 115.029C215.591 110.965 219.473 107.596 223.928 105.144C228.382 102.691 233.306 101.212 238.375 100.804C243.444 100.396 248.542 101.067 253.332 102.775C258.121 104.483 262.494 107.188 266.159 110.71C266.376 109.965 268.736 111.415 269.7 112.885C270.024 111.672 272.237 117.535 273.02 121.679C273.383 120.299 274.776 122.527 273.556 124.664C274.329 124.551 274.679 126.529 274.08 127.631C274.926 127.234 274.783 129.595 273.866 131.172C275.073 131.065 264.341 147.709 259.996 157.436C258.734 151.643 257.316 145.543 253.247 141.228C252.556 140.494 251.799 139.826 251.043 139.159L246.953 135.553C242.198 131.359 237.873 126.182 231.539 124.615C227.185 123.537 224.433 123.294 226.805 118.393C224.662 119.286 222.66 120.615 220.498 121.446C220.527 120.761 220.829 119.994 220.787 119.309Z" fill="#2F2E41"/>
<path d="M251.143 143.96C253.498 143.96 255.407 142.052 255.407 139.699C255.407 137.346 253.498 135.438 251.143 135.438C248.788 135.438 246.879 137.346 246.879 139.699C246.879 142.052 248.788 143.96 251.143 143.96Z" fill="#FFB9B9"/>
<path d="M152.001 43.9317H131.385V64.5327H152.001V43.9317Z" fill="#8000FF"/>
<path d="M164.518 52.7607H139.484V27.7452H164.518V52.7607ZM140.572 51.6731H163.43V28.8329H140.572V51.6731Z" fill="#3F3D56"/>
<path d="M59.8862 127.413L54.2254 107.604L34.4013 113.261L40.0621 133.07L59.8862 127.413Z" fill="#8000FF"/>
<path d="M54.8271 141.865L47.9532 117.811L72.0252 110.942L78.8991 134.996L54.8271 141.865ZM49.2987 118.558L55.5748 140.52L77.5536 134.249L71.2775 112.286L49.2987 118.558Z" fill="#3F3D56"/>
<path d="M54.7626 35.1518L68.8395 20.1006L53.7771 6.03429L39.7002 21.0855L54.7626 35.1518Z" fill="#8000FF"/>
<path d="M39.7606 38.2616L56.854 19.9852L75.1441 37.0657L58.0508 55.3422L39.7606 38.2616ZM56.906 21.5224L41.299 38.2096L57.9987 53.8049L73.6057 37.1177L56.906 21.5224Z" fill="#3F3D56"/>
<path d="M755.615 3.94533H564.052V0H477.19V3.94533H284.837C283.135 3.94532 281.45 4.28023 279.878 4.93094C278.306 5.58164 276.878 6.53539 275.675 7.73773C274.471 8.94007 273.517 10.3675 272.866 11.9384C272.214 13.5093 271.879 15.193 271.879 16.8934V279.006C271.879 280.706 272.214 282.39 272.866 283.961C273.517 285.532 274.471 286.959 275.675 288.162C276.878 289.364 278.306 290.318 279.878 290.968C281.45 291.619 283.135 291.954 284.837 291.954H755.615C759.051 291.954 762.347 290.59 764.777 288.162C767.207 285.733 768.573 282.44 768.573 279.006V16.8934C768.573 15.193 768.237 13.5093 767.586 11.9384C766.935 10.3675 765.981 8.94007 764.777 7.73773C763.574 6.53539 762.146 5.58164 760.573 4.93094C759.001 4.28023 757.316 3.94532 755.615 3.94533Z" fill="#3F3D56"/>
<path d="M751.2 26.8282H289.252V287.22H751.2V26.8282Z" fill="#8000FF"/>
<path d="M519.831 19.7266C522.448 19.7266 524.569 17.6069 524.569 14.9922C524.569 12.3775 522.448 10.2578 519.831 10.2578C517.214 10.2578 515.093 12.3775 515.093 14.9922C515.093 17.6069 517.214 19.7266 519.831 19.7266Z" fill="#8000FF"/>
<path opacity="0.1" d="M619.091 287.22H289.252V26.8284L619.091 287.22Z" fill="black"/>
<path d="M361.533 267.734C386.056 267.734 405.937 247.869 405.937 223.364C405.937 198.858 386.056 178.993 361.533 178.993C337.009 178.993 317.129 198.858 317.129 223.364C317.129 247.869 337.009 267.734 361.533 267.734Z" fill="#F2F2F2"/>
<path d="M371.418 256.713C360.493 256.713 349.814 253.476 340.731 247.411C331.648 241.346 324.568 232.726 320.388 222.641C316.207 212.556 315.114 201.459 317.245 190.752C319.376 180.046 324.637 170.211 332.361 162.493C340.086 154.774 349.928 149.517 360.642 147.387C371.356 145.258 382.462 146.351 392.555 150.528C402.648 154.706 411.274 161.78 417.343 170.856C423.412 179.933 426.652 190.604 426.652 201.52C426.635 216.153 420.811 230.182 410.456 240.529C400.101 250.876 386.061 256.696 371.418 256.713ZM371.418 147.048C360.636 147.048 350.097 150.243 341.132 156.228C332.168 162.214 325.181 170.721 321.055 180.675C316.929 190.628 315.85 201.58 317.953 212.147C320.056 222.713 325.248 232.419 332.872 240.037C340.495 247.655 350.208 252.843 360.783 254.945C371.357 257.046 382.318 255.968 392.278 251.845C402.239 247.722 410.753 240.74 416.743 231.782C422.733 222.825 425.93 212.293 425.93 201.52C425.913 187.078 420.165 173.233 409.945 163.021C399.726 152.809 385.87 147.065 371.418 147.048Z" fill="#3F3D56"/>
<path d="M670.767 167.259H627.616V176.269H670.767V167.259Z" fill="#3F3D56"/>
<path d="M722.935 97.111H575.449V100.972H722.935V97.111Z" fill="#3F3D56"/>
<path d="M722.935 109.339H575.449V113.2H722.935V109.339Z" fill="#3F3D56"/>
<path d="M722.935 121.566H575.449V125.428H722.935V121.566Z" fill="#3F3D56"/>
<path d="M722.935 133.794H575.449V137.655H722.935V133.794Z" fill="#3F3D56"/>
<path d="M722.935 146.022H575.449V149.883H722.935V146.022Z" fill="#3F3D56"/>
<path d="M722.935 32.111H704.902V50.1308H722.935V32.111Z" fill="#F2F2F2"/>
<path d="M731.307 58.4972H709.41V36.616H731.307V58.4972ZM710.362 57.5459H730.355V37.5674H710.362V57.5459Z" fill="#3F3D56"/>
<path d="M781.543 282.485H736.46V279.239C736.46 279.155 736.443 279.071 736.411 278.993C736.378 278.915 736.331 278.844 736.271 278.784C736.211 278.725 736.14 278.677 736.062 278.645C735.984 278.613 735.9 278.596 735.816 278.596H720.359C720.274 278.596 720.19 278.613 720.112 278.645C720.034 278.677 719.963 278.725 719.903 278.784C719.843 278.844 719.796 278.915 719.764 278.993C719.731 279.071 719.715 279.155 719.715 279.239V282.485H710.054V279.239C710.054 279.155 710.037 279.071 710.005 278.993C709.973 278.915 709.925 278.844 709.865 278.784C709.805 278.725 709.734 278.677 709.656 278.645C709.578 278.613 709.494 278.596 709.41 278.596H693.953C693.868 278.596 693.784 278.613 693.706 278.645C693.628 278.677 693.557 278.725 693.497 278.784C693.438 278.844 693.39 278.915 693.358 278.993C693.325 279.071 693.309 279.155 693.309 279.239V282.485H683.648V279.239C683.648 279.155 683.631 279.071 683.599 278.993C683.567 278.915 683.519 278.844 683.459 278.784C683.4 278.725 683.329 278.677 683.251 278.645C683.172 278.613 683.089 278.596 683.004 278.596H667.547C667.462 278.596 667.379 278.613 667.3 278.645C667.222 278.677 667.151 278.725 667.092 278.784C667.032 278.844 666.984 278.915 666.952 278.993C666.92 279.071 666.903 279.155 666.903 279.239V282.485H657.242V279.239C657.242 279.155 657.226 279.071 657.193 278.993C657.161 278.915 657.113 278.844 657.054 278.784C656.994 278.725 656.923 278.677 656.845 278.645C656.767 278.613 656.683 278.596 656.598 278.596H641.141C641.057 278.596 640.973 278.613 640.895 278.645C640.816 278.677 640.745 278.725 640.686 278.784C640.626 278.844 640.578 278.915 640.546 278.993C640.514 279.071 640.497 279.155 640.497 279.239V282.485H630.836V279.239C630.836 279.155 630.82 279.071 630.787 278.993C630.755 278.915 630.708 278.844 630.648 278.784C630.588 278.725 630.517 278.677 630.439 278.645C630.361 278.613 630.277 278.596 630.192 278.596H614.735C614.651 278.596 614.567 278.613 614.489 278.645C614.411 278.677 614.34 278.725 614.28 278.784C614.22 278.844 614.173 278.915 614.14 278.993C614.108 279.071 614.091 279.155 614.091 279.239V282.485H604.431V279.239C604.431 279.155 604.414 279.071 604.382 278.993C604.349 278.915 604.302 278.844 604.242 278.784C604.182 278.725 604.111 278.677 604.033 278.645C603.955 278.613 603.871 278.596 603.787 278.596H588.329C588.245 278.596 588.161 278.613 588.083 278.645C588.005 278.677 587.934 278.725 587.874 278.784C587.814 278.844 587.767 278.915 587.734 278.993C587.702 279.071 587.685 279.155 587.685 279.239V282.485H578.025V279.239C578.025 279.155 578.008 279.071 577.976 278.993C577.943 278.915 577.896 278.844 577.836 278.784C577.776 278.725 577.705 278.677 577.627 278.645C577.549 278.613 577.465 278.596 577.381 278.596H456.3C456.216 278.596 456.132 278.613 456.054 278.645C455.976 278.677 455.905 278.725 455.845 278.784C455.785 278.844 455.738 278.915 455.705 278.993C455.673 279.071 455.656 279.155 455.656 279.239V282.485H445.995V279.239C445.995 279.155 445.979 279.071 445.946 278.993C445.914 278.915 445.867 278.844 445.807 278.784C445.747 278.725 445.676 278.677 445.598 278.645C445.52 278.613 445.436 278.596 445.351 278.596H429.894C429.81 278.596 429.726 278.613 429.648 278.645C429.57 278.677 429.499 278.725 429.439 278.784C429.379 278.844 429.332 278.915 429.299 278.993C429.267 279.071 429.25 279.155 429.25 279.239V282.485H419.59V279.239C419.59 279.155 419.573 279.071 419.541 278.993C419.508 278.915 419.461 278.844 419.401 278.784C419.341 278.725 419.27 278.677 419.192 278.645C419.114 278.613 419.03 278.596 418.946 278.596H403.489C403.404 278.596 403.32 278.613 403.242 278.645C403.164 278.677 403.093 278.725 403.033 278.784C402.973 278.844 402.926 278.915 402.893 278.993C402.861 279.071 402.844 279.155 402.844 279.239V282.485H393.184V279.239C393.184 279.155 393.167 279.071 393.135 278.993C393.102 278.915 393.055 278.844 392.995 278.784C392.935 278.725 392.864 278.677 392.786 278.645C392.708 278.613 392.624 278.596 392.54 278.596H377.083C376.998 278.596 376.914 278.613 376.836 278.645C376.758 278.677 376.687 278.725 376.627 278.784C376.567 278.844 376.52 278.915 376.488 278.993C376.455 279.071 376.439 279.155 376.439 279.239V282.485H366.778V279.239C366.778 279.155 366.761 279.071 366.729 278.993C366.697 278.915 366.649 278.844 366.589 278.784C366.529 278.725 366.459 278.677 366.38 278.645C366.302 278.613 366.218 278.596 366.134 278.596H350.677C350.592 278.596 350.508 278.613 350.43 278.645C350.352 278.677 350.281 278.725 350.221 278.784C350.162 278.844 350.114 278.915 350.082 278.993C350.049 279.071 350.033 279.155 350.033 279.239V282.485H340.372V279.239C340.372 279.155 340.355 279.071 340.323 278.993C340.291 278.915 340.243 278.844 340.183 278.784C340.124 278.725 340.053 278.677 339.974 278.645C339.896 278.613 339.813 278.596 339.728 278.596H324.271C324.186 278.596 324.103 278.613 324.025 278.645C323.946 278.677 323.875 278.725 323.816 278.784C323.756 278.844 323.708 278.915 323.676 278.993C323.644 279.071 323.627 279.155 323.627 279.239V282.485H313.966V279.239C313.966 279.155 313.95 279.071 313.917 278.993C313.885 278.915 313.837 278.844 313.778 278.784C313.718 278.725 313.647 278.677 313.569 278.645C313.491 278.613 313.407 278.596 313.322 278.596H297.865C297.781 278.596 297.697 278.613 297.619 278.645C297.541 278.677 297.47 278.725 297.41 278.784C297.35 278.844 297.302 278.915 297.27 278.993C297.238 279.071 297.221 279.155 297.221 279.239V282.485H267.595C263.496 282.485 259.564 284.113 256.665 287.009C253.766 289.906 252.138 293.834 252.138 297.931V304.915C252.138 309.011 253.766 312.94 256.665 315.837C259.564 318.733 263.496 320.36 267.595 320.36H781.543C785.642 320.36 789.574 318.733 792.473 315.837C795.372 312.94 797 309.011 797 304.915V297.931C797 293.834 795.372 289.906 792.473 287.009C789.574 284.113 785.642 282.485 781.543 282.485Z" fill="#3F3D56"/>
</svg>
