<svg width="46" height="50" viewBox="0 0 46 50" fill="currentColor" xmlns="http://www.w3.org/2000/svg">
<g clip-path="url(#clip0)">
<path d="M15.3301 38.8086C15.3301 39.0039 15.1176 39.1602 14.8496 39.1602C14.5447 39.1895 14.3322 39.0332 14.3322 38.8086C14.3322 38.6133 14.5447 38.457 14.8127 38.457C15.0899 38.4277 15.3301 38.584 15.3301 38.8086ZM12.4563 38.3691C12.3916 38.5645 12.5764 38.7891 12.8537 38.8477C13.0939 38.9453 13.3711 38.8477 13.4266 38.6523C13.482 38.457 13.3065 38.2324 13.0292 38.1445C12.789 38.0762 12.521 38.1738 12.4563 38.3691ZM16.5407 38.2031C16.2727 38.2715 16.0879 38.457 16.1156 38.6816C16.1433 38.877 16.3836 39.0039 16.6608 38.9355C16.9288 38.8672 17.1136 38.6816 17.0859 38.4863C17.0581 38.3008 16.8086 38.1738 16.5407 38.2031ZM22.621 0.78125C9.80427 0.78125 0 11.0645 0 24.6094C0 35.4395 6.44993 44.707 15.6628 47.9688C16.8456 48.1934 17.2614 47.4219 17.2614 46.7871C17.2614 46.1816 17.2337 42.8418 17.2337 40.791C17.2337 40.791 10.7653 42.2559 9.40692 37.8809C9.40692 37.8809 8.35349 35.0391 6.83804 34.3066C6.83804 34.3066 4.72194 32.7734 6.98589 32.8027C6.98589 32.8027 9.28679 32.998 10.5528 35.3223C12.5764 39.0918 15.9677 38.0078 17.2891 37.3633C17.5017 35.8008 18.1023 34.7168 18.7676 34.0723C13.6021 33.4668 8.39046 32.6758 8.39046 23.2812C8.39046 20.5957 9.09274 19.248 10.5712 17.5293C10.331 16.8945 9.54553 14.2773 10.8115 10.8984C12.7428 10.2637 17.1875 13.5352 17.1875 13.5352C19.0356 12.9883 21.0223 12.7051 22.9906 12.7051C24.9588 12.7051 26.9456 12.9883 28.7937 13.5352C28.7937 13.5352 33.2384 10.2539 35.1697 10.8984C36.4356 14.2871 35.6502 16.8945 35.4099 17.5293C36.8884 19.2578 37.794 20.6055 37.794 23.2812C37.794 32.7051 32.3513 33.457 27.1858 34.0723C28.036 34.8438 28.7567 36.3086 28.7567 38.6035C28.7567 41.8945 28.729 45.9668 28.729 46.7676C28.729 47.4023 29.1541 48.1738 30.3276 47.9492C39.5682 44.707 45.8333 35.4395 45.8333 24.6094C45.8333 11.0645 35.4377 0.78125 22.621 0.78125ZM8.98185 34.4629C8.86173 34.5605 8.88945 34.7852 9.04654 34.9707C9.19439 35.127 9.40692 35.1953 9.52705 35.0684C9.64718 34.9707 9.61946 34.7461 9.46237 34.5605C9.31452 34.4043 9.10198 34.3359 8.98185 34.4629ZM7.98387 33.6719C7.91919 33.7988 8.01159 33.9551 8.1964 34.0527C8.34425 34.1504 8.52907 34.1211 8.59375 33.9844C8.65843 33.8574 8.56603 33.7012 8.38122 33.6035C8.1964 33.5449 8.04855 33.5742 7.98387 33.6719ZM10.9778 37.1484C10.83 37.2754 10.8854 37.5684 11.0979 37.7539C11.3105 37.9785 11.5785 38.0078 11.6986 37.8516C11.8187 37.7246 11.7633 37.4316 11.5785 37.2461C11.3752 37.0215 11.0979 36.9922 10.9778 37.1484ZM9.92439 35.7129C9.77655 35.8105 9.77655 36.0645 9.92439 36.2891C10.0722 36.5137 10.3217 36.6113 10.4419 36.5137C10.5897 36.3867 10.5897 36.1328 10.4419 35.9082C10.3125 35.6836 10.0722 35.5859 9.92439 35.7129Z" fill="white"/>
</g>
<defs>
<clipPath id="clip0">
<rect width="45.8333" height="50" fill="white"/>
</clipPath>
</defs>
</svg>
