<svg width="46" height="50" viewBox="0 0 46 50" fill="none" xmlns="http://www.w3.org/2000/svg">
<g clip-path="url(#clip0)">
<path d="M42.5595 3.125H3.26358C1.46298 3.125 0 4.54102 0 6.2793V43.7207C0 45.459 1.46298 46.875 3.26358 46.875H42.5595C44.3601 46.875 45.8333 45.459 45.8333 43.7207V6.2793C45.8333 4.54102 44.3601 3.125 42.5595 3.125ZM13.8523 40.625H7.05915V19.7461H13.8625V40.625H13.8523ZM10.4557 16.8945C8.2766 16.8945 6.51693 15.2051 6.51693 13.1348C6.51693 11.0645 8.2766 9.375 10.4557 9.375C12.6246 9.375 14.3945 11.0645 14.3945 13.1348C14.3945 15.2148 12.6349 16.8945 10.4557 16.8945ZM39.3164 40.625H32.5233V30.4688C32.5233 28.0469 32.4721 24.9316 28.9937 24.9316C25.4539 24.9316 24.9116 27.5684 24.9116 30.293V40.625H18.1185V19.7461H24.6354V22.5977H24.7275C25.638 20.957 27.8581 19.2285 31.1626 19.2285C38.0376 19.2285 39.3164 23.5547 39.3164 29.1797V40.625Z" fill="white"/>
</g>
<defs>
<clipPath id="clip0">
<rect width="45.8333" height="50" fill="white"/>
</clipPath>
</defs>
</svg>
