<svg width="164" height="50" viewBox="0 0 164 50" fill="none" xmlns="http://www.w3.org/2000/svg">
<rect x="1" y="1" width="48" height="48" stroke="black" stroke-width="2" stroke-dasharray="5 5"/>
<path d="M15.0057 6.36364V18H12.5455V8.69886H12.4773L9.8125 10.3693V8.1875L12.6932 6.36364H15.0057Z" fill="black"/>
<path d="M37.5057 18.2557C36.5284 18.2519 35.6875 18.0114 34.983 17.5341C34.2822 17.0568 33.7424 16.3655 33.3636 15.4602C32.9886 14.5549 32.803 13.4659 32.8068 12.1932C32.8068 10.9242 32.9943 9.8428 33.3693 8.94886C33.7481 8.05492 34.2879 7.375 34.9886 6.90909C35.6932 6.43939 36.5322 6.20455 37.5057 6.20455C38.4792 6.20455 39.3163 6.43939 40.017 6.90909C40.7216 7.37879 41.2633 8.06061 41.642 8.95455C42.0208 9.8447 42.2083 10.9242 42.2045 12.1932C42.2045 13.4697 42.0152 14.5606 41.6364 15.4659C41.2614 16.3712 40.7235 17.0625 40.0227 17.5398C39.322 18.017 38.483 18.2557 37.5057 18.2557ZM37.5057 16.2159C38.1723 16.2159 38.7045 15.8807 39.1023 15.2102C39.5 14.5398 39.697 13.5341 39.6932 12.1932C39.6932 11.3106 39.6023 10.5758 39.4205 9.98864C39.2424 9.40151 38.9886 8.96023 38.6591 8.66477C38.3333 8.36932 37.9489 8.22159 37.5057 8.22159C36.8428 8.22159 36.3125 8.55303 35.9148 9.21591C35.517 9.87879 35.3163 10.8712 35.3125 12.1932C35.3125 13.0871 35.4015 13.8333 35.5795 14.4318C35.7614 15.0265 36.017 15.4735 36.3466 15.7727C36.6761 16.0682 37.0625 16.2159 37.5057 16.2159Z" fill="black"/>
<path d="M40.0057 31.3636V43H37.5455V33.6989H37.4773L34.8125 35.3693V33.1875L37.6932 31.3636H40.0057Z" fill="black"/>
<path d="M12.5057 43.2557C11.5284 43.2519 10.6875 43.0114 9.98295 42.5341C9.2822 42.0568 8.74242 41.3655 8.36364 40.4602C7.98864 39.5549 7.80303 38.4659 7.80682 37.1932C7.80682 35.9242 7.99432 34.8428 8.36932 33.9489C8.74811 33.0549 9.28788 32.375 9.98864 31.9091C10.6932 31.4394 11.5322 31.2045 12.5057 31.2045C13.4792 31.2045 14.3163 31.4394 15.017 31.9091C15.7216 32.3788 16.2633 33.0606 16.642 33.9545C17.0208 34.8447 17.2083 35.9242 17.2045 37.1932C17.2045 38.4697 17.0152 39.5606 16.6364 40.4659C16.2614 41.3712 15.7235 42.0625 15.0227 42.5398C14.322 43.017 13.483 43.2557 12.5057 43.2557ZM12.5057 41.2159C13.1723 41.2159 13.7045 40.8807 14.1023 40.2102C14.5 39.5398 14.697 38.5341 14.6932 37.1932C14.6932 36.3106 14.6023 35.5758 14.4205 34.9886C14.2424 34.4015 13.9886 33.9602 13.6591 33.6648C13.3333 33.3693 12.9489 33.2216 12.5057 33.2216C11.8428 33.2216 11.3125 33.553 10.9148 34.2159C10.517 34.8788 10.3163 35.8712 10.3125 37.1932C10.3125 38.0871 10.4015 38.8333 10.5795 39.4318C10.7614 40.0265 11.017 40.4735 11.3466 40.7727C11.6761 41.0682 12.0625 41.2159 12.5057 41.2159Z" fill="black"/>
<path d="M60.6074 7.78125H63.0879L66.7402 18.2207L70.3926 7.78125H72.873L67.7363 22H65.7441L60.6074 7.78125ZM59.2695 7.78125H61.7402L62.1895 17.957V22H59.2695V7.78125ZM71.7402 7.78125H74.2207V22H71.291V17.957L71.7402 7.78125ZM79.582 11.4336V22H76.7598V11.4336H79.582ZM76.584 8.67969C76.584 8.26953 76.7272 7.93099 77.0137 7.66406C77.3001 7.39714 77.6842 7.26367 78.166 7.26367C78.6413 7.26367 79.0221 7.39714 79.3086 7.66406C79.6016 7.93099 79.748 8.26953 79.748 8.67969C79.748 9.08984 79.6016 9.42839 79.3086 9.69531C79.0221 9.96224 78.6413 10.0957 78.166 10.0957C77.6842 10.0957 77.3001 9.96224 77.0137 9.69531C76.7272 9.42839 76.584 9.08984 76.584 8.67969ZM84.6602 13.6895V22H81.8477V11.4336H84.4844L84.6602 13.6895ZM84.25 16.3457H83.4883C83.4883 15.5645 83.5892 14.8613 83.791 14.2363C83.9928 13.6048 84.276 13.0677 84.6406 12.625C85.0052 12.1758 85.4382 11.834 85.9395 11.5996C86.4473 11.3587 87.0137 11.2383 87.6387 11.2383C88.1335 11.2383 88.5859 11.3099 88.9961 11.4531C89.4062 11.5964 89.7578 11.8242 90.0508 12.1367C90.3503 12.4492 90.5781 12.8626 90.7344 13.377C90.8971 13.8913 90.9785 14.5195 90.9785 15.2617V22H88.1465V15.252C88.1465 14.7832 88.0814 14.4186 87.9512 14.1582C87.821 13.8978 87.6289 13.7155 87.375 13.6113C87.1276 13.5007 86.8216 13.4453 86.457 13.4453C86.0794 13.4453 85.7507 13.5202 85.4707 13.6699C85.1973 13.8197 84.9694 14.028 84.7871 14.2949C84.6113 14.5553 84.4779 14.8613 84.3867 15.2129C84.2956 15.5645 84.25 15.9421 84.25 16.3457ZM99.3574 19.6953V7H102.189V22H99.6406L99.3574 19.6953ZM92.6777 16.8438V16.6387C92.6777 15.8314 92.7689 15.099 92.9512 14.4414C93.1335 13.7773 93.4004 13.2077 93.752 12.7324C94.1035 12.2572 94.5365 11.8893 95.0508 11.6289C95.5651 11.3685 96.151 11.2383 96.8086 11.2383C97.4271 11.2383 97.9674 11.3685 98.4297 11.6289C98.8984 11.8893 99.2956 12.2604 99.6211 12.7422C99.9531 13.2174 100.22 13.7806 100.422 14.4316C100.624 15.0762 100.77 15.7826 100.861 16.5508V17C100.77 17.7357 100.624 18.4193 100.422 19.0508C100.22 19.6823 99.9531 20.2357 99.6211 20.7109C99.2956 21.1797 98.8984 21.5443 98.4297 21.8047C97.9609 22.0651 97.4141 22.1953 96.7891 22.1953C96.1315 22.1953 95.5456 22.0618 95.0312 21.7949C94.5234 21.528 94.0938 21.1536 93.7422 20.6719C93.3971 20.1901 93.1335 19.6237 92.9512 18.9727C92.7689 18.3216 92.6777 17.612 92.6777 16.8438ZM95.4902 16.6387V16.8438C95.4902 17.2799 95.5228 17.6868 95.5879 18.0645C95.6595 18.4421 95.7734 18.7773 95.9297 19.0703C96.0924 19.3568 96.3008 19.5814 96.5547 19.7441C96.8151 19.9004 97.1309 19.9785 97.502 19.9785C97.9837 19.9785 98.3809 19.8711 98.6934 19.6562C99.0059 19.4349 99.2435 19.1322 99.4062 18.748C99.5755 18.3639 99.6732 17.9212 99.6992 17.4199V16.1406C99.6797 15.7305 99.6211 15.3626 99.5234 15.0371C99.4323 14.7051 99.2956 14.4219 99.1133 14.1875C98.9375 13.9531 98.7161 13.7708 98.4492 13.6406C98.1888 13.5104 97.8796 13.4453 97.5215 13.4453C97.1569 13.4453 96.8444 13.5299 96.584 13.6992C96.3236 13.862 96.112 14.0866 95.9492 14.373C95.793 14.6595 95.6758 14.998 95.5977 15.3887C95.526 15.7728 95.4902 16.1895 95.4902 16.6387ZM110.129 15.7598H106.477L106.457 13.748H109.523C110.064 13.748 110.507 13.6797 110.852 13.543C111.197 13.3997 111.454 13.1947 111.623 12.9277C111.799 12.6543 111.887 12.3223 111.887 11.9316C111.887 11.4889 111.802 11.1309 111.633 10.8574C111.47 10.584 111.213 10.3854 110.861 10.2617C110.516 10.138 110.07 10.0762 109.523 10.0762H107.492V22H104.562V7.78125H109.523C110.35 7.78125 111.089 7.85938 111.74 8.01562C112.398 8.17188 112.954 8.40951 113.41 8.72852C113.866 9.04753 114.214 9.45117 114.455 9.93945C114.696 10.4212 114.816 10.9941 114.816 11.6582C114.816 12.2441 114.683 12.7845 114.416 13.2793C114.156 13.7741 113.742 14.1777 113.176 14.4902C112.616 14.8027 111.883 14.9753 110.979 15.0078L110.129 15.7598ZM110.002 22H105.676L106.818 19.7148H110.002C110.516 19.7148 110.936 19.6335 111.262 19.4707C111.587 19.3014 111.828 19.0736 111.984 18.7871C112.141 18.5007 112.219 18.1719 112.219 17.8008C112.219 17.3841 112.147 17.0228 112.004 16.7168C111.867 16.4108 111.646 16.1764 111.34 16.0137C111.034 15.8444 110.63 15.7598 110.129 15.7598H107.307L107.326 13.748H110.842L111.516 14.5391C112.382 14.526 113.078 14.679 113.605 14.998C114.139 15.3105 114.527 15.7174 114.768 16.2188C115.015 16.7201 115.139 17.2572 115.139 17.8301C115.139 18.7415 114.94 19.5098 114.543 20.1348C114.146 20.7533 113.563 21.2188 112.795 21.5312C112.033 21.8438 111.102 22 110.002 22ZM120.129 7V22H117.307V7H120.129ZM122.004 16.8242V16.6191C122.004 15.8444 122.115 15.1315 122.336 14.4805C122.557 13.8229 122.88 13.2533 123.303 12.7715C123.726 12.2897 124.247 11.9154 124.865 11.6484C125.484 11.375 126.193 11.2383 126.994 11.2383C127.795 11.2383 128.508 11.375 129.133 11.6484C129.758 11.9154 130.282 12.2897 130.705 12.7715C131.135 13.2533 131.46 13.8229 131.682 14.4805C131.903 15.1315 132.014 15.8444 132.014 16.6191V16.8242C132.014 17.5924 131.903 18.3053 131.682 18.9629C131.46 19.6139 131.135 20.1836 130.705 20.6719C130.282 21.1536 129.761 21.528 129.143 21.7949C128.524 22.0618 127.814 22.1953 127.014 22.1953C126.213 22.1953 125.5 22.0618 124.875 21.7949C124.257 21.528 123.732 21.1536 123.303 20.6719C122.88 20.1836 122.557 19.6139 122.336 18.9629C122.115 18.3053 122.004 17.5924 122.004 16.8242ZM124.816 16.6191V16.8242C124.816 17.2669 124.855 17.6803 124.934 18.0645C125.012 18.4486 125.135 18.7871 125.305 19.0801C125.48 19.3665 125.708 19.5911 125.988 19.7539C126.268 19.9167 126.61 19.998 127.014 19.998C127.404 19.998 127.74 19.9167 128.02 19.7539C128.299 19.5911 128.524 19.3665 128.693 19.0801C128.863 18.7871 128.986 18.4486 129.064 18.0645C129.149 17.6803 129.191 17.2669 129.191 16.8242V16.6191C129.191 16.1895 129.149 15.7858 129.064 15.4082C128.986 15.0241 128.859 14.6855 128.684 14.3926C128.514 14.0931 128.29 13.8587 128.01 13.6895C127.73 13.5202 127.391 13.4355 126.994 13.4355C126.597 13.4355 126.258 13.5202 125.979 13.6895C125.705 13.8587 125.48 14.0931 125.305 14.3926C125.135 14.6855 125.012 15.0241 124.934 15.4082C124.855 15.7858 124.816 16.1895 124.816 16.6191ZM138.107 19.998C138.452 19.998 138.758 19.9329 139.025 19.8027C139.292 19.666 139.501 19.4772 139.65 19.2363C139.807 18.9889 139.888 18.6992 139.895 18.3672H142.541C142.535 19.1094 142.336 19.7702 141.945 20.3496C141.555 20.9225 141.031 21.375 140.373 21.707C139.715 22.0326 138.98 22.1953 138.166 22.1953C137.346 22.1953 136.63 22.0586 136.018 21.7852C135.412 21.5117 134.908 21.1341 134.504 20.6523C134.1 20.1641 133.798 19.5977 133.596 18.9531C133.394 18.3021 133.293 17.6055 133.293 16.8633V16.5801C133.293 15.8314 133.394 15.1348 133.596 14.4902C133.798 13.8392 134.1 13.2728 134.504 12.791C134.908 12.3027 135.412 11.9219 136.018 11.6484C136.623 11.375 137.333 11.2383 138.146 11.2383C139.012 11.2383 139.771 11.4043 140.422 11.7363C141.079 12.0684 141.594 12.5436 141.965 13.1621C142.342 13.7741 142.535 14.5 142.541 15.3398H139.895C139.888 14.9883 139.813 14.6693 139.67 14.3828C139.533 14.0964 139.331 13.8685 139.064 13.6992C138.804 13.5234 138.482 13.4355 138.098 13.4355C137.688 13.4355 137.352 13.5234 137.092 13.6992C136.831 13.8685 136.63 14.1029 136.486 14.4023C136.343 14.6953 136.242 15.0306 136.184 15.4082C136.132 15.7793 136.105 16.1699 136.105 16.5801V16.8633C136.105 17.2734 136.132 17.6673 136.184 18.0449C136.236 18.4225 136.333 18.7578 136.477 19.0508C136.626 19.3438 136.831 19.5749 137.092 19.7441C137.352 19.9134 137.691 19.998 138.107 19.998ZM146.984 6.99023V22H144.172V6.99023H146.984ZM153.645 11.4336L149.055 16.668L146.594 19.1582L145.568 17.127L147.521 14.6465L150.266 11.4336H153.645ZM150.725 22L147.6 17.1172L149.543 15.418L153.967 22H150.725ZM160.568 19.0801C160.568 18.8783 160.51 18.696 160.393 18.5332C160.275 18.3704 160.057 18.2207 159.738 18.084C159.426 17.9408 158.973 17.8105 158.381 17.6934C157.847 17.5762 157.349 17.4297 156.887 17.2539C156.431 17.0716 156.034 16.8535 155.695 16.5996C155.363 16.3457 155.103 16.0462 154.914 15.7012C154.725 15.3496 154.631 14.9492 154.631 14.5C154.631 14.0573 154.725 13.6406 154.914 13.25C155.109 12.8594 155.386 12.5143 155.744 12.2148C156.109 11.9089 156.551 11.6712 157.072 11.502C157.6 11.3262 158.192 11.2383 158.85 11.2383C159.768 11.2383 160.555 11.3848 161.213 11.6777C161.877 11.9707 162.385 12.3743 162.736 12.8887C163.094 13.3965 163.273 13.9759 163.273 14.627H160.461C160.461 14.3535 160.402 14.1094 160.285 13.8945C160.174 13.6732 159.999 13.5007 159.758 13.377C159.523 13.2467 159.217 13.1816 158.84 13.1816C158.527 13.1816 158.257 13.237 158.029 13.3477C157.801 13.4518 157.626 13.5951 157.502 13.7773C157.385 13.9531 157.326 14.1484 157.326 14.3633C157.326 14.526 157.359 14.6725 157.424 14.8027C157.495 14.9264 157.609 15.0404 157.766 15.1445C157.922 15.2487 158.124 15.3464 158.371 15.4375C158.625 15.5221 158.938 15.6003 159.309 15.6719C160.07 15.8281 160.751 16.0332 161.35 16.2871C161.949 16.5345 162.424 16.873 162.775 17.3027C163.127 17.7259 163.303 18.2826 163.303 18.9727C163.303 19.4414 163.199 19.8711 162.99 20.2617C162.782 20.6523 162.482 20.9941 162.092 21.2871C161.701 21.5736 161.232 21.7982 160.686 21.9609C160.145 22.1172 159.536 22.1953 158.859 22.1953C157.876 22.1953 157.043 22.0195 156.359 21.668C155.682 21.3164 155.168 20.8704 154.816 20.3301C154.471 19.7832 154.299 19.2233 154.299 18.6504H156.965C156.978 19.0345 157.076 19.3438 157.258 19.5781C157.447 19.8125 157.684 19.9818 157.971 20.0859C158.264 20.1901 158.579 20.2422 158.918 20.2422C159.283 20.2422 159.585 20.1934 159.826 20.0957C160.067 19.9915 160.249 19.8548 160.373 19.6855C160.503 19.5098 160.568 19.3079 160.568 19.0801Z" fill="black"/>
<path d="M58.88 43V42.472C59.2853 42.4613 59.5627 42.3707 59.712 42.2C59.8613 42.0187 59.9413 41.7787 59.952 41.48C59.9733 41.1707 59.984 40.8187 59.984 40.424V33.704C59.984 33.416 59.9893 33.1707 60 32.968C60.0107 32.7547 60.0213 32.5787 60.032 32.44C59.84 32.4507 59.648 32.4613 59.456 32.472C59.264 32.4827 59.072 32.4933 58.88 32.504V31.8C59.4667 31.7893 60.0533 31.784 60.64 31.784C61.2373 31.7733 61.856 31.768 62.496 31.768C63.7333 31.768 64.6987 31.9867 65.392 32.424C66.096 32.8613 66.4373 33.5547 66.416 34.504C66.416 34.8453 66.3147 35.1867 66.112 35.528C65.92 35.8693 65.6267 36.1733 65.232 36.44C64.848 36.696 64.3627 36.8773 63.776 36.984V37.016C64.9493 37.016 65.8347 37.288 66.432 37.832C67.0293 38.3653 67.328 39.0427 67.328 39.864C67.328 40.5147 67.1627 41.0747 66.832 41.544C66.5013 42.0133 66.0533 42.376 65.488 42.632C64.9227 42.8773 64.2773 43 63.552 43H58.88ZM61.328 42.36C61.4987 42.3707 61.7013 42.3813 61.936 42.392C62.1813 42.392 62.4053 42.392 62.608 42.392C62.8213 42.392 62.96 42.392 63.024 42.392C63.8453 42.392 64.5067 42.1893 65.008 41.784C65.52 41.368 65.776 40.76 65.776 39.96C65.776 39.3093 65.648 38.8027 65.392 38.44C65.136 38.0773 64.8 37.8213 64.384 37.672C63.968 37.5227 63.5147 37.448 63.024 37.448C62.704 37.448 62.4107 37.4533 62.144 37.464C61.888 37.464 61.632 37.4747 61.376 37.496V41.112C61.376 41.4 61.3707 41.6453 61.36 41.848C61.36 42.0507 61.3493 42.2213 61.328 42.36ZM61.376 36.872L62.544 36.84C63.152 36.8293 63.632 36.7067 63.984 36.472C64.336 36.2267 64.5867 35.9227 64.736 35.56C64.896 35.1973 64.9707 34.8187 64.96 34.424C64.9493 33.848 64.816 33.4107 64.56 33.112C64.3147 32.8133 64.0107 32.6107 63.648 32.504C63.2853 32.3973 62.928 32.344 62.576 32.344C62.224 32.344 61.9627 32.392 61.792 32.488C61.6213 32.584 61.5093 32.744 61.456 32.968C61.4027 33.192 61.376 33.5013 61.376 33.896V36.872ZM69.686 47.336C69.3553 47.336 69.0727 47.256 68.838 47.096C68.6033 46.936 68.486 46.6907 68.486 46.36C68.486 46.168 68.55 45.992 68.678 45.832C68.806 45.672 68.9713 45.592 69.174 45.592C69.43 45.5813 69.6007 45.6613 69.686 45.832C69.782 46.0027 69.83 46.152 69.83 46.28C69.83 46.312 69.83 46.344 69.83 46.376C69.83 46.4187 69.8247 46.4613 69.814 46.504C69.846 46.5253 69.9047 46.536 69.99 46.536C70.118 46.536 70.2567 46.4827 70.406 46.376C70.5553 46.2693 70.6887 46.1147 70.806 45.912C70.9447 45.6773 71.1047 45.3253 71.286 44.856C71.478 44.3867 71.6913 43.8267 71.926 43.176L69.43 37.832C69.1527 37.2347 68.95 36.76 68.822 36.408C68.7047 36.056 68.6247 35.7947 68.582 35.624L67.814 35.656V35H71.126V35.48H71.062C70.614 35.512 70.3687 35.6827 70.326 35.992C70.2833 36.2907 70.406 36.7493 70.694 37.368L72.566 41.384C72.8113 40.7013 73.046 40.0293 73.27 39.368C73.494 38.696 73.718 38.0293 73.942 37.368C74.0273 37.1333 74.1127 36.8933 74.198 36.648C74.294 36.392 74.3847 36.168 74.47 35.976C74.566 35.7733 74.6513 35.6453 74.726 35.592L73.622 35.656V35H76.134V35.48C75.7393 35.6293 75.4407 35.88 75.238 36.232C75.046 36.5733 74.8487 37.016 74.646 37.56L72.646 43.144C72.326 44.04 72.0327 44.7973 71.766 45.416C71.4993 46.0453 71.206 46.52 70.886 46.84C70.566 47.1707 70.166 47.336 69.686 47.336ZM86.8543 38.856C86.8543 38.3867 86.7903 38.0507 86.6623 37.848C86.5343 37.6453 86.3316 37.5227 86.0543 37.48C85.7769 37.4373 85.4089 37.4267 84.9503 37.448L83.7823 37.496V41.16C83.7823 41.448 83.7769 41.6933 83.7663 41.896C83.7663 42.0987 83.7556 42.2693 83.7343 42.408L86.7903 42.36C87.2596 42.3493 87.6649 42.2747 88.0063 42.136C88.3476 41.9867 88.6143 41.7307 88.8063 41.368C88.9983 41.0053 89.0943 40.5093 89.0943 39.88H89.6383L89.5423 43H81.2863V42.472C81.6916 42.4507 81.9689 42.36 82.1183 42.2C82.2676 42.0293 82.3476 41.8 82.3583 41.512C82.3796 41.2133 82.3903 40.8773 82.3903 40.504V33.592C82.3903 33.3787 82.3956 33.176 82.4062 32.984C82.4169 32.7813 82.4276 32.6 82.4383 32.44C82.2463 32.4507 82.0543 32.4613 81.8623 32.472C81.6703 32.4827 81.4783 32.4933 81.2863 32.504V31.8H88.9823L89.0623 34.6H88.5343C88.5343 33.9707 88.4383 33.496 88.2463 33.176C88.0543 32.8453 87.7929 32.6267 87.4623 32.52C87.1423 32.4027 86.7796 32.3493 86.3743 32.36L84.9983 32.392C84.6036 32.4027 84.3209 32.4773 84.1503 32.616C83.9796 32.7547 83.8729 32.9627 83.8303 33.24C83.7983 33.5067 83.7823 33.8587 83.7823 34.296V36.856L86.7903 36.872L86.6783 35.496H87.3823V38.856H86.8543ZM91.0634 42.52C91.394 42.52 91.6234 42.44 91.7514 42.28C91.8794 42.1093 91.954 41.88 91.9754 41.592C91.9967 41.2933 92.0074 40.952 92.0074 40.568V36.92C92.0074 36.7493 92.0074 36.5787 92.0074 36.408C92.018 36.2373 92.0394 36.0613 92.0714 35.88C91.8794 35.8907 91.6874 35.9013 91.4954 35.912C91.314 35.912 91.1274 35.9173 90.9354 35.928V35.272H91.4314C91.89 35.272 92.2047 35.2293 92.3754 35.144C92.5567 35.048 92.706 34.9467 92.8234 34.84H93.2874C93.3087 35.0107 93.3247 35.224 93.3354 35.48C93.346 35.7253 93.3567 36.04 93.3674 36.424C93.5274 36.1573 93.746 35.896 94.0234 35.64C94.3007 35.384 94.61 35.1707 94.9514 35C95.3034 34.8293 95.6714 34.744 96.0554 34.744C96.354 34.744 96.6154 34.824 96.8394 34.984C97.0634 35.144 97.1754 35.4 97.1754 35.752C97.1754 35.8373 97.1487 35.944 97.0954 36.072C97.042 36.1893 96.9567 36.296 96.8394 36.392C96.722 36.4773 96.5674 36.52 96.3754 36.52C96.1407 36.5093 95.954 36.4187 95.8154 36.248C95.6767 36.0667 95.6234 35.8587 95.6554 35.624C95.3887 35.6133 95.1114 35.6827 94.8234 35.832C94.546 35.9813 94.2847 36.1893 94.0394 36.456C93.794 36.712 93.5754 37.016 93.3834 37.368L93.3994 41.304C93.3994 41.5173 93.394 41.7093 93.3834 41.88C93.3834 42.04 93.3674 42.2107 93.3354 42.392C93.506 42.3813 93.6714 42.376 93.8314 42.376C94.002 42.3653 94.1727 42.3547 94.3434 42.344V43H91.0634V42.52ZM97.9853 43V42.52C98.3159 42.52 98.5453 42.44 98.6733 42.28C98.8013 42.1093 98.8759 41.88 98.8973 41.592C98.9186 41.2933 98.9293 40.952 98.9293 40.568L98.9453 36.92C98.9453 36.7493 98.9453 36.5787 98.9453 36.408C98.9559 36.2373 98.9773 36.0613 99.0093 35.88C98.8173 35.8907 98.6253 35.9013 98.4333 35.912C98.2519 35.9227 98.0653 35.9333 97.8733 35.944V35.272C98.3426 35.272 98.6946 35.2507 98.9293 35.208C99.1746 35.1653 99.3559 35.112 99.4733 35.048C99.5906 34.984 99.6866 34.9147 99.7613 34.84H100.225C100.236 34.9147 100.241 35 100.241 35.096C100.252 35.192 100.263 35.2987 100.273 35.416C100.284 35.5333 100.289 35.6667 100.289 35.816C100.524 35.6133 100.78 35.432 101.057 35.272C101.345 35.112 101.644 34.984 101.953 34.888C102.273 34.792 102.588 34.744 102.897 34.744C103.825 34.744 104.503 35.0373 104.929 35.624C105.356 36.2 105.569 37.1013 105.569 38.328V41.304C105.569 41.5173 105.564 41.7093 105.553 41.88C105.553 42.04 105.537 42.2107 105.505 42.392C105.676 42.3813 105.841 42.376 106.001 42.376C106.172 42.3653 106.343 42.3547 106.513 42.344V43H103.249V42.52C103.58 42.52 103.809 42.44 103.937 42.28C104.065 42.1093 104.14 41.88 104.161 41.592C104.183 41.2933 104.193 40.952 104.193 40.568V38.328C104.183 37.4107 104.028 36.7173 103.729 36.248C103.441 35.7787 102.983 35.5493 102.353 35.56C101.969 35.5707 101.591 35.672 101.217 35.864C100.855 36.056 100.551 36.3013 100.305 36.6C100.316 36.6853 100.321 36.7813 100.321 36.888C100.321 36.9947 100.321 37.1067 100.321 37.224L100.305 41.304C100.305 41.5173 100.3 41.7093 100.289 41.88C100.289 42.04 100.273 42.2107 100.241 42.392C100.412 42.3813 100.577 42.376 100.737 42.376C100.908 42.3653 101.079 42.3547 101.249 42.344V43H97.9853ZM112.568 43C112.536 42.8187 112.515 42.6587 112.504 42.52C112.493 42.3813 112.477 42.2373 112.456 42.088C112.093 42.4507 111.699 42.7387 111.272 42.952C110.856 43.1547 110.413 43.256 109.944 43.256C109.133 43.256 108.531 43.0747 108.136 42.712C107.741 42.3387 107.544 41.8853 107.544 41.352C107.544 40.8613 107.693 40.44 107.992 40.088C108.301 39.7253 108.696 39.432 109.176 39.208C109.667 38.9733 110.195 38.8027 110.76 38.696C111.336 38.5787 111.891 38.5253 112.424 38.536V37.544C112.424 37.1707 112.392 36.8187 112.328 36.488C112.264 36.1573 112.125 35.8853 111.912 35.672C111.699 35.4587 111.357 35.3467 110.888 35.336C110.579 35.3253 110.259 35.384 109.928 35.512C109.608 35.64 109.373 35.8587 109.224 36.168C109.309 36.2533 109.363 36.3547 109.384 36.472C109.416 36.5787 109.432 36.68 109.432 36.776C109.432 36.904 109.379 37.0533 109.272 37.224C109.165 37.384 108.979 37.4587 108.712 37.448C108.488 37.448 108.317 37.3733 108.2 37.224C108.083 37.064 108.024 36.8773 108.024 36.664C108.024 36.3013 108.157 35.976 108.424 35.688C108.701 35.4 109.08 35.1707 109.56 35C110.04 34.8293 110.584 34.744 111.192 34.744C112.088 34.744 112.749 34.984 113.176 35.464C113.603 35.9333 113.811 36.68 113.8 37.704C113.8 38.0987 113.8 38.4987 113.8 38.904C113.8 39.2987 113.795 39.6987 113.784 40.104C113.784 40.4987 113.784 40.8987 113.784 41.304C113.784 41.4747 113.779 41.6453 113.768 41.816C113.757 41.9867 113.741 42.1787 113.72 42.392C113.912 42.3813 114.099 42.3707 114.28 42.36C114.472 42.3493 114.664 42.3387 114.856 42.328V43H112.568ZM112.424 39.08C112.061 39.0907 111.677 39.1387 111.272 39.224C110.877 39.2987 110.509 39.416 110.168 39.576C109.837 39.736 109.565 39.9493 109.352 40.216C109.149 40.472 109.053 40.7867 109.064 41.16C109.085 41.5547 109.213 41.8533 109.448 42.056C109.693 42.248 109.981 42.344 110.312 42.344C110.749 42.344 111.128 42.264 111.448 42.104C111.779 41.9333 112.104 41.6987 112.424 41.4C112.413 41.2827 112.408 41.1547 112.408 41.016C112.408 40.8773 112.408 40.7333 112.408 40.584C112.408 40.5307 112.408 40.36 112.408 40.072C112.419 39.784 112.424 39.4533 112.424 39.08ZM115.954 43V42.52C116.285 42.52 116.514 42.44 116.642 42.28C116.77 42.1093 116.845 41.88 116.866 41.592C116.887 41.2933 116.898 40.952 116.898 40.568L116.914 36.92C116.914 36.7493 116.914 36.5787 116.914 36.408C116.925 36.2373 116.946 36.0613 116.978 35.88C116.786 35.8907 116.594 35.9013 116.402 35.912C116.221 35.9227 116.034 35.9333 115.842 35.944V35.272C116.311 35.272 116.663 35.2507 116.898 35.208C117.143 35.1653 117.325 35.112 117.442 35.048C117.559 34.984 117.655 34.9147 117.73 34.84H118.194C118.205 34.9147 118.21 35 118.21 35.096C118.221 35.192 118.231 35.2987 118.242 35.416C118.253 35.5333 118.258 35.6667 118.258 35.816C118.493 35.6133 118.749 35.432 119.026 35.272C119.314 35.112 119.613 34.984 119.922 34.888C120.242 34.792 120.557 34.744 120.866 34.744C121.794 34.744 122.471 35.0373 122.898 35.624C123.325 36.2 123.538 37.1013 123.538 38.328V41.304C123.538 41.5173 123.533 41.7093 123.522 41.88C123.522 42.04 123.506 42.2107 123.474 42.392C123.645 42.3813 123.81 42.376 123.97 42.376C124.141 42.3653 124.311 42.3547 124.482 42.344V43H121.218V42.52C121.549 42.52 121.778 42.44 121.906 42.28C122.034 42.1093 122.109 41.88 122.13 41.592C122.151 41.2933 122.162 40.952 122.162 40.568V38.328C122.151 37.4107 121.997 36.7173 121.698 36.248C121.41 35.7787 120.951 35.5493 120.322 35.56C119.938 35.5707 119.559 35.672 119.186 35.864C118.823 36.056 118.519 36.3013 118.274 36.6C118.285 36.6853 118.29 36.7813 118.29 36.888C118.29 36.9947 118.29 37.1067 118.29 37.224L118.274 41.304C118.274 41.5173 118.269 41.7093 118.258 41.88C118.258 42.04 118.242 42.2107 118.21 42.392C118.381 42.3813 118.546 42.376 118.706 42.376C118.877 42.3653 119.047 42.3547 119.218 42.344V43H115.954ZM125.673 42.52C126.003 42.52 126.233 42.44 126.361 42.28C126.489 42.1093 126.563 41.88 126.585 41.592C126.606 41.2933 126.617 40.952 126.617 40.568V36.92C126.617 36.7493 126.622 36.5893 126.633 36.44C126.643 36.28 126.659 36.0933 126.681 35.88C126.489 35.8907 126.297 35.9013 126.105 35.912C125.923 35.9227 125.737 35.9333 125.545 35.944V35.272C126.014 35.272 126.377 35.2507 126.633 35.208C126.889 35.1653 127.081 35.112 127.209 35.048C127.347 34.984 127.454 34.9147 127.529 34.84H127.993V41.304C127.993 41.5173 127.987 41.7093 127.977 41.88C127.977 42.04 127.961 42.2107 127.929 42.392C128.099 42.3813 128.265 42.376 128.425 42.376C128.595 42.3653 128.766 42.3547 128.937 42.344V43H125.673V42.52ZM127.225 33.256C127.001 33.256 126.803 33.1653 126.633 32.984C126.462 32.8027 126.377 32.5787 126.377 32.312C126.377 32.0453 126.462 31.8213 126.633 31.64C126.814 31.448 127.017 31.352 127.241 31.352C127.486 31.352 127.689 31.448 127.849 31.64C128.019 31.8213 128.105 32.0453 128.105 32.312C128.105 32.5787 128.014 32.8027 127.833 32.984C127.662 33.1653 127.459 33.256 127.225 33.256Z" fill="black"/>
</svg>
