<svg width="164" height="50" viewBox="0 0 164 50" fill="none" xmlns="http://www.w3.org/2000/svg">
<rect x="1" y="1" width="48" height="48" stroke="white" stroke-width="2" stroke-dasharray="5 5"/>
<path d="M15.0057 6.36364V18H12.5455V8.69886H12.4773L9.8125 10.3693V8.1875L12.6932 6.36364H15.0057Z" fill="white"/>
<path d="M37.5057 18.2557C36.5284 18.2519 35.6875 18.0114 34.983 17.5341C34.2822 17.0568 33.7424 16.3655 33.3636 15.4602C32.9886 14.5549 32.803 13.4659 32.8068 12.1932C32.8068 10.9242 32.9943 9.8428 33.3693 8.94886C33.7481 8.05492 34.2879 7.375 34.9886 6.90909C35.6932 6.43939 36.5322 6.20455 37.5057 6.20455C38.4792 6.20455 39.3163 6.43939 40.017 6.90909C40.7216 7.37879 41.2633 8.06061 41.642 8.95455C42.0208 9.8447 42.2083 10.9242 42.2045 12.1932C42.2045 13.4697 42.0152 14.5606 41.6364 15.4659C41.2614 16.3712 40.7235 17.0625 40.0227 17.5398C39.322 18.017 38.483 18.2557 37.5057 18.2557ZM37.5057 16.2159C38.1723 16.2159 38.7045 15.8807 39.1023 15.2102C39.5 14.5398 39.697 13.5341 39.6932 12.1932C39.6932 11.3106 39.6023 10.5758 39.4205 9.98864C39.2424 9.40151 38.9886 8.96023 38.6591 8.66477C38.3333 8.36932 37.9489 8.22159 37.5057 8.22159C36.8428 8.22159 36.3125 8.55303 35.9148 9.21591C35.517 9.87879 35.3163 10.8712 35.3125 12.1932C35.3125 13.0871 35.4015 13.8333 35.5795 14.4318C35.7614 15.0265 36.017 15.4735 36.3466 15.7727C36.6761 16.0682 37.0625 16.2159 37.5057 16.2159Z" fill="white"/>
<path d="M40.0057 31.3636V43H37.5455V33.6989H37.4773L34.8125 35.3693V33.1875L37.6932 31.3636H40.0057Z" fill="white"/>
<path d="M12.5057 43.2557C11.5284 43.2519 10.6875 43.0114 9.98295 42.5341C9.2822 42.0568 8.74242 41.3655 8.36364 40.4602C7.98864 39.5549 7.80303 38.4659 7.80682 37.1932C7.80682 35.9242 7.99432 34.8428 8.36932 33.9489C8.74811 33.0549 9.28788 32.375 9.98864 31.9091C10.6932 31.4394 11.5322 31.2045 12.5057 31.2045C13.4792 31.2045 14.3163 31.4394 15.017 31.9091C15.7216 32.3788 16.2633 33.0606 16.642 33.9545C17.0208 34.8447 17.2083 35.9242 17.2045 37.1932C17.2045 38.4697 17.0152 39.5606 16.6364 40.4659C16.2614 41.3712 15.7235 42.0625 15.0227 42.5398C14.322 43.017 13.483 43.2557 12.5057 43.2557ZM12.5057 41.2159C13.1723 41.2159 13.7045 40.8807 14.1023 40.2102C14.5 39.5398 14.697 38.5341 14.6932 37.1932C14.6932 36.3106 14.6023 35.5758 14.4205 34.9886C14.2424 34.4015 13.9886 33.9602 13.6591 33.6648C13.3333 33.3693 12.9489 33.2216 12.5057 33.2216C11.8428 33.2216 11.3125 33.553 10.9148 34.2159C10.517 34.8788 10.3163 35.8712 10.3125 37.1932C10.3125 38.0871 10.4015 38.8333 10.5795 39.4318C10.7614 40.0265 11.017 40.4735 11.3466 40.7727C11.6761 41.0682 12.0625 41.2159 12.5057 41.2159Z" fill="white"/>
<path d="M60.6074 7.78125H63.0879L66.7402 18.2207L70.3926 7.78125H72.873L67.7363 22H65.7441L60.6074 7.78125ZM59.2695 7.78125H61.7402L62.1895 17.957V22H59.2695V7.78125ZM71.7402 7.78125H74.2207V22H71.291V17.957L71.7402 7.78125ZM79.582 11.4336V22H76.7598V11.4336H79.582ZM76.584 8.67969C76.584 8.26953 76.7272 7.93099 77.0137 7.66406C77.3001 7.39714 77.6842 7.26367 78.166 7.26367C78.6413 7.26367 79.0221 7.39714 79.3086 7.66406C79.6016 7.93099 79.748 8.26953 79.748 8.67969C79.748 9.08984 79.6016 9.42839 79.3086 9.69531C79.0221 9.96224 78.6413 10.0957 78.166 10.0957C77.6842 10.0957 77.3001 9.96224 77.0137 9.69531C76.7272 9.42839 76.584 9.08984 76.584 8.67969ZM84.6602 13.6895V22H81.8477V11.4336H84.4844L84.6602 13.6895ZM84.25 16.3457H83.4883C83.4883 15.5645 83.5892 14.8613 83.791 14.2363C83.9928 13.6048 84.276 13.0677 84.6406 12.625C85.0052 12.1758 85.4382 11.834 85.9395 11.5996C86.4473 11.3587 87.0137 11.2383 87.6387 11.2383C88.1335 11.2383 88.5859 11.3099 88.9961 11.4531C89.4062 11.5964 89.7578 11.8242 90.0508 12.1367C90.3503 12.4492 90.5781 12.8626 90.7344 13.377C90.8971 13.8913 90.9785 14.5195 90.9785 15.2617V22H88.1465V15.252C88.1465 14.7832 88.0814 14.4186 87.9512 14.1582C87.821 13.8978 87.6289 13.7155 87.375 13.6113C87.1276 13.5007 86.8216 13.4453 86.457 13.4453C86.0794 13.4453 85.7507 13.5202 85.4707 13.6699C85.1973 13.8197 84.9694 14.028 84.7871 14.2949C84.6113 14.5553 84.4779 14.8613 84.3867 15.2129C84.2956 15.5645 84.25 15.9421 84.25 16.3457ZM99.3574 19.6953V7H102.189V22H99.6406L99.3574 19.6953ZM92.6777 16.8438V16.6387C92.6777 15.8314 92.7689 15.099 92.9512 14.4414C93.1335 13.7773 93.4004 13.2077 93.752 12.7324C94.1035 12.2572 94.5365 11.8893 95.0508 11.6289C95.5651 11.3685 96.151 11.2383 96.8086 11.2383C97.4271 11.2383 97.9674 11.3685 98.4297 11.6289C98.8984 11.8893 99.2956 12.2604 99.6211 12.7422C99.9531 13.2174 100.22 13.7806 100.422 14.4316C100.624 15.0762 100.77 15.7826 100.861 16.5508V17C100.77 17.7357 100.624 18.4193 100.422 19.0508C100.22 19.6823 99.9531 20.2357 99.6211 20.7109C99.2956 21.1797 98.8984 21.5443 98.4297 21.8047C97.9609 22.0651 97.4141 22.1953 96.7891 22.1953C96.1315 22.1953 95.5456 22.0618 95.0312 21.7949C94.5234 21.528 94.0938 21.1536 93.7422 20.6719C93.3971 20.1901 93.1335 19.6237 92.9512 18.9727C92.7689 18.3216 92.6777 17.612 92.6777 16.8438ZM95.4902 16.6387V16.8438C95.4902 17.2799 95.5228 17.6868 95.5879 18.0645C95.6595 18.4421 95.7734 18.7773 95.9297 19.0703C96.0924 19.3568 96.3008 19.5814 96.5547 19.7441C96.8151 19.9004 97.1309 19.9785 97.502 19.9785C97.9837 19.9785 98.3809 19.8711 98.6934 19.6562C99.0059 19.4349 99.2435 19.1322 99.4062 18.748C99.5755 18.3639 99.6732 17.9212 99.6992 17.4199V16.1406C99.6797 15.7305 99.6211 15.3626 99.5234 15.0371C99.4323 14.7051 99.2956 14.4219 99.1133 14.1875C98.9375 13.9531 98.7161 13.7708 98.4492 13.6406C98.1888 13.5104 97.8796 13.4453 97.5215 13.4453C97.1569 13.4453 96.8444 13.5299 96.584 13.6992C96.3236 13.862 96.112 14.0866 95.9492 14.373C95.793 14.6595 95.6758 14.998 95.5977 15.3887C95.526 15.7728 95.4902 16.1895 95.4902 16.6387ZM110.129 15.7598H106.477L106.457 13.748H109.523C110.064 13.748 110.507 13.6797 110.852 13.543C111.197 13.3997 111.454 13.1947 111.623 12.9277C111.799 12.6543 111.887 12.3223 111.887 11.9316C111.887 11.4889 111.802 11.1309 111.633 10.8574C111.47 10.584 111.213 10.3854 110.861 10.2617C110.516 10.138 110.07 10.0762 109.523 10.0762H107.492V22H104.562V7.78125H109.523C110.35 7.78125 111.089 7.85938 111.74 8.01562C112.398 8.17188 112.954 8.40951 113.41 8.72852C113.866 9.04753 114.214 9.45117 114.455 9.93945C114.696 10.4212 114.816 10.9941 114.816 11.6582C114.816 12.2441 114.683 12.7845 114.416 13.2793C114.156 13.7741 113.742 14.1777 113.176 14.4902C112.616 14.8027 111.883 14.9753 110.979 15.0078L110.129 15.7598ZM110.002 22H105.676L106.818 19.7148H110.002C110.516 19.7148 110.936 19.6335 111.262 19.4707C111.587 19.3014 111.828 19.0736 111.984 18.7871C112.141 18.5007 112.219 18.1719 112.219 17.8008C112.219 17.3841 112.147 17.0228 112.004 16.7168C111.867 16.4108 111.646 16.1764 111.34 16.0137C111.034 15.8444 110.63 15.7598 110.129 15.7598H107.307L107.326 13.748H110.842L111.516 14.5391C112.382 14.526 113.078 14.679 113.605 14.998C114.139 15.3105 114.527 15.7174 114.768 16.2188C115.015 16.7201 115.139 17.2572 115.139 17.8301C115.139 18.7415 114.94 19.5098 114.543 20.1348C114.146 20.7533 113.563 21.2188 112.795 21.5312C112.033 21.8438 111.102 22 110.002 22ZM120.129 7V22H117.307V7H120.129ZM122.004 16.8242V16.6191C122.004 15.8444 122.115 15.1315 122.336 14.4805C122.557 13.8229 122.88 13.2533 123.303 12.7715C123.726 12.2897 124.247 11.9154 124.865 11.6484C125.484 11.375 126.193 11.2383 126.994 11.2383C127.795 11.2383 128.508 11.375 129.133 11.6484C129.758 11.9154 130.282 12.2897 130.705 12.7715C131.135 13.2533 131.46 13.8229 131.682 14.4805C131.903 15.1315 132.014 15.8444 132.014 16.6191V16.8242C132.014 17.5924 131.903 18.3053 131.682 18.9629C131.46 19.6139 131.135 20.1836 130.705 20.6719C130.282 21.1536 129.761 21.528 129.143 21.7949C128.524 22.0618 127.814 22.1953 127.014 22.1953C126.213 22.1953 125.5 22.0618 124.875 21.7949C124.257 21.528 123.732 21.1536 123.303 20.6719C122.88 20.1836 122.557 19.6139 122.336 18.9629C122.115 18.3053 122.004 17.5924 122.004 16.8242ZM124.816 16.6191V16.8242C124.816 17.2669 124.855 17.6803 124.934 18.0645C125.012 18.4486 125.135 18.7871 125.305 19.0801C125.48 19.3665 125.708 19.5911 125.988 19.7539C126.268 19.9167 126.61 19.998 127.014 19.998C127.404 19.998 127.74 19.9167 128.02 19.7539C128.299 19.5911 128.524 19.3665 128.693 19.0801C128.863 18.7871 128.986 18.4486 129.064 18.0645C129.149 17.6803 129.191 17.2669 129.191 16.8242V16.6191C129.191 16.1895 129.149 15.7858 129.064 15.4082C128.986 15.0241 128.859 14.6855 128.684 14.3926C128.514 14.0931 128.29 13.8587 128.01 13.6895C127.73 13.5202 127.391 13.4355 126.994 13.4355C126.597 13.4355 126.258 13.5202 125.979 13.6895C125.705 13.8587 125.48 14.0931 125.305 14.3926C125.135 14.6855 125.012 15.0241 124.934 15.4082C124.855 15.7858 124.816 16.1895 124.816 16.6191ZM138.107 19.998C138.452 19.998 138.758 19.9329 139.025 19.8027C139.292 19.666 139.501 19.4772 139.65 19.2363C139.807 18.9889 139.888 18.6992 139.895 18.3672H142.541C142.535 19.1094 142.336 19.7702 141.945 20.3496C141.555 20.9225 141.031 21.375 140.373 21.707C139.715 22.0326 138.98 22.1953 138.166 22.1953C137.346 22.1953 136.63 22.0586 136.018 21.7852C135.412 21.5117 134.908 21.1341 134.504 20.6523C134.1 20.1641 133.798 19.5977 133.596 18.9531C133.394 18.3021 133.293 17.6055 133.293 16.8633V16.5801C133.293 15.8314 133.394 15.1348 133.596 14.4902C133.798 13.8392 134.1 13.2728 134.504 12.791C134.908 12.3027 135.412 11.9219 136.018 11.6484C136.623 11.375 137.333 11.2383 138.146 11.2383C139.012 11.2383 139.771 11.4043 140.422 11.7363C141.079 12.0684 141.594 12.5436 141.965 13.1621C142.342 13.7741 142.535 14.5 142.541 15.3398H139.895C139.888 14.9883 139.813 14.6693 139.67 14.3828C139.533 14.0964 139.331 13.8685 139.064 13.6992C138.804 13.5234 138.482 13.4355 138.098 13.4355C137.688 13.4355 137.352 13.5234 137.092 13.6992C136.831 13.8685 136.63 14.1029 136.486 14.4023C136.343 14.6953 136.242 15.0306 136.184 15.4082C136.132 15.7793 136.105 16.1699 136.105 16.5801V16.8633C136.105 17.2734 136.132 17.6673 136.184 18.0449C136.236 18.4225 136.333 18.7578 136.477 19.0508C136.626 19.3438 136.831 19.5749 137.092 19.7441C137.352 19.9134 137.691 19.998 138.107 19.998ZM146.984 6.99023V22H144.172V6.99023H146.984ZM153.645 11.4336L149.055 16.668L146.594 19.1582L145.568 17.127L147.521 14.6465L150.266 11.4336H153.645ZM150.725 22L147.6 17.1172L149.543 15.418L153.967 22H150.725ZM160.568 19.0801C160.568 18.8783 160.51 18.696 160.393 18.5332C160.275 18.3704 160.057 18.2207 159.738 18.084C159.426 17.9408 158.973 17.8105 158.381 17.6934C157.847 17.5762 157.349 17.4297 156.887 17.2539C156.431 17.0716 156.034 16.8535 155.695 16.5996C155.363 16.3457 155.103 16.0462 154.914 15.7012C154.725 15.3496 154.631 14.9492 154.631 14.5C154.631 14.0573 154.725 13.6406 154.914 13.25C155.109 12.8594 155.386 12.5143 155.744 12.2148C156.109 11.9089 156.551 11.6712 157.072 11.502C157.6 11.3262 158.192 11.2383 158.85 11.2383C159.768 11.2383 160.555 11.3848 161.213 11.6777C161.877 11.9707 162.385 12.3743 162.736 12.8887C163.094 13.3965 163.273 13.9759 163.273 14.627H160.461C160.461 14.3535 160.402 14.1094 160.285 13.8945C160.174 13.6732 159.999 13.5007 159.758 13.377C159.523 13.2467 159.217 13.1816 158.84 13.1816C158.527 13.1816 158.257 13.237 158.029 13.3477C157.801 13.4518 157.626 13.5951 157.502 13.7773C157.385 13.9531 157.326 14.1484 157.326 14.3633C157.326 14.526 157.359 14.6725 157.424 14.8027C157.495 14.9264 157.609 15.0404 157.766 15.1445C157.922 15.2487 158.124 15.3464 158.371 15.4375C158.625 15.5221 158.938 15.6003 159.309 15.6719C160.07 15.8281 160.751 16.0332 161.35 16.2871C161.949 16.5345 162.424 16.873 162.775 17.3027C163.127 17.7259 163.303 18.2826 163.303 18.9727C163.303 19.4414 163.199 19.8711 162.99 20.2617C162.782 20.6523 162.482 20.9941 162.092 21.2871C161.701 21.5736 161.232 21.7982 160.686 21.9609C160.145 22.1172 159.536 22.1953 158.859 22.1953C157.876 22.1953 157.043 22.0195 156.359 21.668C155.682 21.3164 155.168 20.8704 154.816 20.3301C154.471 19.7832 154.299 19.2233 154.299 18.6504H156.965C156.978 19.0345 157.076 19.3438 157.258 19.5781C157.447 19.8125 157.684 19.9818 157.971 20.0859C158.264 20.1901 158.579 20.2422 158.918 20.2422C159.283 20.2422 159.585 20.1934 159.826 20.0957C160.067 19.9915 160.249 19.8548 160.373 19.6855C160.503 19.5098 160.568 19.3079 160.568 19.0801Z" fill="white"/>
<path d="M58.77 41V40.538C59.1247 40.5287 59.3673 40.4493 59.498 40.3C59.6287 40.1413 59.6987 39.9313 59.708 39.67C59.7267 39.3993 59.736 39.0913 59.736 38.746V32.866C59.736 32.614 59.7407 32.3993 59.75 32.222C59.7593 32.0353 59.7687 31.8813 59.778 31.76C59.61 31.7693 59.442 31.7787 59.274 31.788C59.106 31.7973 58.938 31.8067 58.77 31.816V31.2C59.2833 31.1907 59.7967 31.186 60.31 31.186C60.8327 31.1767 61.374 31.172 61.934 31.172C63.0167 31.172 63.8613 31.3633 64.468 31.746C65.084 32.1287 65.3827 32.7353 65.364 33.566C65.364 33.8647 65.2753 34.1633 65.098 34.462C64.93 34.7607 64.6733 35.0267 64.328 35.26C63.992 35.484 63.5673 35.6427 63.054 35.736V35.764C64.0807 35.764 64.8553 36.002 65.378 36.478C65.9007 36.9447 66.162 37.5373 66.162 38.256C66.162 38.8253 66.0173 39.3153 65.728 39.726C65.4387 40.1367 65.0467 40.454 64.552 40.678C64.0573 40.8927 63.4927 41 62.858 41H58.77ZM60.912 40.44C61.0613 40.4493 61.2387 40.4587 61.444 40.468C61.6587 40.468 61.8547 40.468 62.032 40.468C62.2187 40.468 62.34 40.468 62.396 40.468C63.1147 40.468 63.6933 40.2907 64.132 39.936C64.58 39.572 64.804 39.04 64.804 38.34C64.804 37.7707 64.692 37.3273 64.468 37.01C64.244 36.6927 63.95 36.4687 63.586 36.338C63.222 36.2073 62.8253 36.142 62.396 36.142C62.116 36.142 61.8593 36.1467 61.626 36.156C61.402 36.156 61.178 36.1653 60.954 36.184V39.348C60.954 39.6 60.9493 39.8147 60.94 39.992C60.94 40.1693 60.9307 40.3187 60.912 40.44ZM60.954 35.638L61.976 35.61C62.508 35.6007 62.928 35.4933 63.236 35.288C63.544 35.0733 63.7633 34.8073 63.894 34.49C64.034 34.1727 64.0993 33.8413 64.09 33.496C64.0807 32.992 63.964 32.6093 63.74 32.348C63.5253 32.0867 63.2593 31.9093 62.942 31.816C62.6247 31.7227 62.312 31.676 62.004 31.676C61.696 31.676 61.4673 31.718 61.318 31.802C61.1687 31.886 61.0707 32.026 61.024 32.222C60.9773 32.418 60.954 32.6887 60.954 33.034V35.638ZM68.2253 44.794C67.9359 44.794 67.6886 44.724 67.4833 44.584C67.2779 44.444 67.1753 44.2293 67.1753 43.94C67.1753 43.772 67.2313 43.618 67.3433 43.478C67.4553 43.338 67.5999 43.268 67.7773 43.268C68.0013 43.2587 68.1506 43.3287 68.2253 43.478C68.3093 43.6273 68.3513 43.758 68.3513 43.87C68.3513 43.898 68.3513 43.926 68.3513 43.954C68.3513 43.9913 68.3466 44.0287 68.3373 44.066C68.3653 44.0847 68.4166 44.094 68.4913 44.094C68.6033 44.094 68.7246 44.0473 68.8553 43.954C68.9859 43.8607 69.1026 43.7253 69.2053 43.548C69.3266 43.3427 69.4666 43.0347 69.6253 42.624C69.7933 42.2133 69.9799 41.7233 70.1853 41.154L68.0013 36.478C67.7586 35.9553 67.5813 35.54 67.4693 35.232C67.3666 34.924 67.2966 34.6953 67.2593 34.546L66.5873 34.574V34H69.4853V34.42H69.4293C69.0373 34.448 68.8226 34.5973 68.7853 34.868C68.7479 35.1293 68.8553 35.5307 69.1073 36.072L70.7453 39.586C70.9599 38.9887 71.1653 38.4007 71.3613 37.822C71.5573 37.234 71.7533 36.6507 71.9493 36.072C72.0239 35.8667 72.0986 35.6567 72.1733 35.442C72.2573 35.218 72.3366 35.022 72.4113 34.854C72.4953 34.6767 72.5699 34.5647 72.6353 34.518L71.6693 34.574V34H73.8673V34.42C73.5219 34.5507 73.2606 34.77 73.0833 35.078C72.9153 35.3767 72.7426 35.764 72.5653 36.24L70.8153 41.126C70.5353 41.91 70.2786 42.5727 70.0453 43.114C69.8119 43.6647 69.5553 44.08 69.2753 44.36C68.9953 44.6493 68.6453 44.794 68.2253 44.794ZM83.2475 37.374C83.2475 36.9633 83.1915 36.6693 83.0795 36.492C82.9675 36.3147 82.7901 36.2073 82.5475 36.17C82.3048 36.1327 81.9828 36.1233 81.5815 36.142L80.5595 36.184V39.39C80.5595 39.642 80.5548 39.8567 80.5455 40.034C80.5455 40.2113 80.5361 40.3607 80.5175 40.482L83.1915 40.44C83.6021 40.4307 83.9568 40.3653 84.2555 40.244C84.5541 40.1133 84.7875 39.8893 84.9555 39.572C85.1235 39.2547 85.2075 38.8207 85.2075 38.27H85.6835L85.5995 41H78.3755V40.538C78.7301 40.5193 78.9728 40.44 79.1035 40.3C79.2341 40.1507 79.3041 39.95 79.3135 39.698C79.3321 39.4367 79.3415 39.1427 79.3415 38.816V32.768C79.3415 32.5813 79.3461 32.404 79.3555 32.236C79.3648 32.0587 79.3741 31.9 79.3835 31.76C79.2155 31.7693 79.0475 31.7787 78.8795 31.788C78.7115 31.7973 78.5435 31.8067 78.3755 31.816V31.2H85.1095L85.1795 33.65H84.7175C84.7175 33.0993 84.6335 32.684 84.4655 32.404C84.2975 32.1147 84.0688 31.9233 83.7795 31.83C83.4995 31.7273 83.1821 31.6807 82.8275 31.69L81.6235 31.718C81.2781 31.7273 81.0308 31.7927 80.8815 31.914C80.7321 32.0353 80.6388 32.2173 80.6015 32.46C80.5735 32.6933 80.5595 33.0013 80.5595 33.384V35.624L83.1915 35.638L83.0935 34.434H83.7095V37.374H83.2475ZM86.9305 40.58C87.2198 40.58 87.4205 40.51 87.5325 40.37C87.6445 40.2207 87.7098 40.02 87.7285 39.768C87.7471 39.5067 87.7565 39.208 87.7565 38.872V35.68C87.7565 35.5307 87.7565 35.3813 87.7565 35.232C87.7658 35.0827 87.7845 34.9287 87.8125 34.77C87.6445 34.7793 87.4765 34.7887 87.3085 34.798C87.1498 34.798 86.9865 34.8027 86.8185 34.812V34.238H87.2525C87.6538 34.238 87.9291 34.2007 88.0785 34.126C88.2371 34.042 88.3678 33.9533 88.4705 33.86H88.8765C88.8951 34.0093 88.9091 34.196 88.9185 34.42C88.9278 34.6347 88.9371 34.91 88.9465 35.246C89.0865 35.0127 89.2778 34.784 89.5205 34.56C89.7631 34.336 90.0338 34.1493 90.3325 34C90.6405 33.8507 90.9625 33.776 91.2985 33.776C91.5598 33.776 91.7885 33.846 91.9845 33.986C92.1805 34.126 92.2785 34.35 92.2785 34.658C92.2785 34.7327 92.2551 34.826 92.2085 34.938C92.1618 35.0407 92.0871 35.134 91.9845 35.218C91.8818 35.2927 91.7465 35.33 91.5785 35.33C91.3731 35.3207 91.2098 35.2413 91.0885 35.092C90.9671 34.9333 90.9205 34.7513 90.9485 34.546C90.7151 34.5367 90.4725 34.5973 90.2205 34.728C89.9778 34.8587 89.7491 35.0407 89.5345 35.274C89.3198 35.498 89.1285 35.764 88.9605 36.072L88.9745 39.516C88.9745 39.7027 88.9698 39.8707 88.9605 40.02C88.9605 40.16 88.9465 40.3093 88.9185 40.468C89.0678 40.4587 89.2125 40.454 89.3525 40.454C89.5018 40.4447 89.6511 40.4353 89.8005 40.426V41H86.9305V40.58ZM92.9871 41V40.58C93.2764 40.58 93.4771 40.51 93.5891 40.37C93.7011 40.2207 93.7664 40.02 93.7851 39.768C93.8038 39.5067 93.8131 39.208 93.8131 38.872L93.8271 35.68C93.8271 35.5307 93.8271 35.3813 93.8271 35.232C93.8364 35.0827 93.8551 34.9287 93.8831 34.77C93.7151 34.7793 93.5471 34.7887 93.3791 34.798C93.2204 34.8073 93.0571 34.8167 92.8891 34.826V34.238C93.2998 34.238 93.6078 34.2193 93.8131 34.182C94.0278 34.1447 94.1864 34.098 94.2891 34.042C94.3918 33.986 94.4758 33.9253 94.5411 33.86H94.9471C94.9564 33.9253 94.9611 34 94.9611 34.084C94.9704 34.168 94.9798 34.2613 94.9891 34.364C94.9984 34.4667 95.0031 34.5833 95.0031 34.714C95.2084 34.5367 95.4324 34.378 95.6751 34.238C95.9271 34.098 96.1884 33.986 96.4591 33.902C96.7391 33.818 97.0144 33.776 97.2851 33.776C98.0971 33.776 98.6898 34.0327 99.0631 34.546C99.4364 35.05 99.6231 35.8387 99.6231 36.912V39.516C99.6231 39.7027 99.6184 39.8707 99.6091 40.02C99.6091 40.16 99.5951 40.3093 99.5671 40.468C99.7164 40.4587 99.8611 40.454 100.001 40.454C100.15 40.4447 100.3 40.4353 100.449 40.426V41H97.5931V40.58C97.8824 40.58 98.0831 40.51 98.1951 40.37C98.3071 40.2207 98.3724 40.02 98.3911 39.768C98.4098 39.5067 98.4191 39.208 98.4191 38.872V36.912C98.4098 36.1093 98.2744 35.5027 98.0131 35.092C97.7611 34.6813 97.3598 34.4807 96.8091 34.49C96.4731 34.4993 96.1418 34.588 95.8151 34.756C95.4978 34.924 95.2318 35.1387 95.0171 35.4C95.0264 35.4747 95.0311 35.5587 95.0311 35.652C95.0311 35.7453 95.0311 35.8433 95.0311 35.946L95.0171 39.516C95.0171 39.7027 95.0124 39.8707 95.0031 40.02C95.0031 40.16 94.9891 40.3093 94.9611 40.468C95.1104 40.4587 95.2551 40.454 95.3951 40.454C95.5444 40.4447 95.6938 40.4353 95.8431 40.426V41H92.9871ZM105.747 41C105.719 40.8413 105.7 40.7013 105.691 40.58C105.682 40.4587 105.668 40.3327 105.649 40.202C105.332 40.5193 104.986 40.7713 104.613 40.958C104.249 41.1353 103.862 41.224 103.451 41.224C102.742 41.224 102.214 41.0653 101.869 40.748C101.524 40.4213 101.351 40.0247 101.351 39.558C101.351 39.1287 101.482 38.76 101.743 38.452C102.014 38.1347 102.359 37.878 102.779 37.682C103.208 37.4767 103.67 37.3273 104.165 37.234C104.669 37.1313 105.154 37.0847 105.621 37.094V36.226C105.621 35.8993 105.593 35.5913 105.537 35.302C105.481 35.0127 105.36 34.7747 105.173 34.588C104.986 34.4013 104.688 34.3033 104.277 34.294C104.006 34.2847 103.726 34.336 103.437 34.448C103.157 34.56 102.952 34.7513 102.821 35.022C102.896 35.0967 102.942 35.1853 102.961 35.288C102.989 35.3813 103.003 35.47 103.003 35.554C103.003 35.666 102.956 35.7967 102.863 35.946C102.77 36.086 102.606 36.1513 102.373 36.142C102.177 36.142 102.028 36.0767 101.925 35.946C101.822 35.806 101.771 35.6427 101.771 35.456C101.771 35.1387 101.888 34.854 102.121 34.602C102.364 34.35 102.695 34.1493 103.115 34C103.535 33.8507 104.011 33.776 104.543 33.776C105.327 33.776 105.906 33.986 106.279 34.406C106.652 34.8167 106.834 35.47 106.825 36.366C106.825 36.7113 106.825 37.0613 106.825 37.416C106.825 37.7613 106.82 38.1113 106.811 38.466C106.811 38.8113 106.811 39.1613 106.811 39.516C106.811 39.6653 106.806 39.8147 106.797 39.964C106.788 40.1133 106.774 40.2813 106.755 40.468C106.923 40.4587 107.086 40.4493 107.245 40.44C107.413 40.4307 107.581 40.4213 107.749 40.412V41H105.747ZM105.621 37.57C105.304 37.5793 104.968 37.6213 104.613 37.696C104.268 37.7613 103.946 37.864 103.647 38.004C103.358 38.144 103.12 38.3307 102.933 38.564C102.756 38.788 102.672 39.0633 102.681 39.39C102.7 39.7353 102.812 39.9967 103.017 40.174C103.232 40.342 103.484 40.426 103.773 40.426C104.156 40.426 104.487 40.356 104.767 40.216C105.056 40.0667 105.341 39.8613 105.621 39.6C105.612 39.4973 105.607 39.3853 105.607 39.264C105.607 39.1427 105.607 39.0167 105.607 38.886C105.607 38.8393 105.607 38.69 105.607 38.438C105.616 38.186 105.621 37.8967 105.621 37.57ZM108.71 41V40.58C108.999 40.58 109.2 40.51 109.312 40.37C109.424 40.2207 109.489 40.02 109.508 39.768C109.526 39.5067 109.536 39.208 109.536 38.872L109.55 35.68C109.55 35.5307 109.55 35.3813 109.55 35.232C109.559 35.0827 109.578 34.9287 109.606 34.77C109.438 34.7793 109.27 34.7887 109.102 34.798C108.943 34.8073 108.78 34.8167 108.612 34.826V34.238C109.022 34.238 109.33 34.2193 109.536 34.182C109.75 34.1447 109.909 34.098 110.012 34.042C110.114 33.986 110.198 33.9253 110.264 33.86H110.67C110.679 33.9253 110.684 34 110.684 34.084C110.693 34.168 110.702 34.2613 110.712 34.364C110.721 34.4667 110.726 34.5833 110.726 34.714C110.931 34.5367 111.155 34.378 111.398 34.238C111.65 34.098 111.911 33.986 112.182 33.902C112.462 33.818 112.737 33.776 113.008 33.776C113.82 33.776 114.412 34.0327 114.786 34.546C115.159 35.05 115.346 35.8387 115.346 36.912V39.516C115.346 39.7027 115.341 39.8707 115.332 40.02C115.332 40.16 115.318 40.3093 115.29 40.468C115.439 40.4587 115.584 40.454 115.724 40.454C115.873 40.4447 116.022 40.4353 116.172 40.426V41H113.316V40.58C113.605 40.58 113.806 40.51 113.918 40.37C114.03 40.2207 114.095 40.02 114.114 39.768C114.132 39.5067 114.142 39.208 114.142 38.872V36.912C114.132 36.1093 113.997 35.5027 113.736 35.092C113.484 34.6813 113.082 34.4807 112.532 34.49C112.196 34.4993 111.864 34.588 111.538 34.756C111.22 34.924 110.954 35.1387 110.74 35.4C110.749 35.4747 110.754 35.5587 110.754 35.652C110.754 35.7453 110.754 35.8433 110.754 35.946L110.74 39.516C110.74 39.7027 110.735 39.8707 110.726 40.02C110.726 40.16 110.712 40.3093 110.684 40.468C110.833 40.4587 110.978 40.454 111.118 40.454C111.267 40.4447 111.416 40.4353 111.566 40.426V41H108.71ZM117.214 40.58C117.503 40.58 117.704 40.51 117.816 40.37C117.928 40.2207 117.993 40.02 118.012 39.768C118.03 39.5067 118.04 39.208 118.04 38.872V35.68C118.04 35.5307 118.044 35.3907 118.054 35.26C118.063 35.12 118.077 34.9567 118.096 34.77C117.928 34.7793 117.76 34.7887 117.592 34.798C117.433 34.8073 117.27 34.8167 117.102 34.826V34.238C117.512 34.238 117.83 34.2193 118.054 34.182C118.278 34.1447 118.446 34.098 118.558 34.042C118.679 33.986 118.772 33.9253 118.838 33.86H119.244V39.516C119.244 39.7027 119.239 39.8707 119.23 40.02C119.23 40.16 119.216 40.3093 119.188 40.468C119.337 40.4587 119.482 40.454 119.622 40.454C119.771 40.4447 119.92 40.4353 120.07 40.426V41H117.214V40.58ZM118.572 32.474C118.376 32.474 118.203 32.3947 118.054 32.236C117.904 32.0773 117.83 31.8813 117.83 31.648C117.83 31.4147 117.904 31.2187 118.054 31.06C118.212 30.892 118.39 30.808 118.586 30.808C118.8 30.808 118.978 30.892 119.118 31.06C119.267 31.2187 119.342 31.4147 119.342 31.648C119.342 31.8813 119.262 32.0773 119.104 32.236C118.954 32.3947 118.777 32.474 118.572 32.474Z" fill="white"/>
</svg>
