<svg width="140" height="132" viewBox="0 0 140 132" fill="none" xmlns="http://www.w3.org/2000/svg">
<circle cx="6.6" cy="6.6" r="6.6" fill="#B5F8FE"/>
<circle cx="6.6" cy="26.4" r="6.6" fill="#B5F8FE"/>
<circle cx="6.6" cy="46.2" r="6.6" fill="#B5F8FE"/>
<circle cx="6.6" cy="66" r="6.6" fill="#B5F8FE"/>
<circle cx="6.6" cy="85.8" r="6.6" fill="#B5F8FE"/>
<circle cx="6.6" cy="105.6" r="6.6" fill="#B5F8FE"/>
<circle cx="6.6" cy="125.4" r="6.6" fill="#B5F8FE"/>
<circle cx="27.7201" cy="6.6" r="6.6" fill="#B5F8FE"/>
<circle cx="27.7201" cy="26.4" r="6.6" fill="#B5F8FE"/>
<circle cx="27.7201" cy="46.2" r="6.6" fill="#B5F8FE"/>
<circle cx="27.7201" cy="66" r="6.6" fill="#B5F8FE"/>
<circle cx="27.7201" cy="85.8" r="6.6" fill="#B5F8FE"/>
<circle cx="27.7201" cy="105.6" r="6.6" fill="#B5F8FE"/>
<circle cx="27.7201" cy="125.4" r="6.6" fill="#B5F8FE"/>
<circle cx="48.8402" cy="6.6" r="6.6" fill="#B5F8FE"/>
<circle cx="48.8402" cy="26.4" r="6.6" fill="#B5F8FE"/>
<circle cx="48.8402" cy="46.2" r="6.6" fill="#B5F8FE"/>
<circle cx="48.8402" cy="66" r="6.6" fill="#B5F8FE"/>
<circle cx="48.8402" cy="85.8" r="6.6" fill="#B5F8FE"/>
<circle cx="48.8402" cy="105.6" r="6.6" fill="#B5F8FE"/>
<circle cx="48.8402" cy="125.4" r="6.6" fill="#B5F8FE"/>
<circle cx="69.9599" cy="6.6" r="6.6" fill="#B5F8FE"/>
<circle cx="69.9599" cy="26.4" r="6.6" fill="#B5F8FE"/>
<circle cx="69.9599" cy="46.2" r="6.6" fill="#B5F8FE"/>
<circle cx="69.9599" cy="66" r="6.6" fill="#B5F8FE"/>
<circle cx="69.9599" cy="85.8" r="6.6" fill="#B5F8FE"/>
<circle cx="69.9599" cy="105.6" r="6.6" fill="#B5F8FE"/>
<circle cx="69.9599" cy="125.4" r="6.6" fill="#B5F8FE"/>
<circle cx="91.08" cy="6.6" r="6.6" fill="#B5F8FE"/>
<circle cx="91.08" cy="26.4" r="6.6" fill="#B5F8FE"/>
<circle cx="91.08" cy="46.2" r="6.6" fill="#B5F8FE"/>
<circle cx="91.08" cy="66" r="6.6" fill="#B5F8FE"/>
<circle cx="91.08" cy="85.8" r="6.6" fill="#B5F8FE"/>
<circle cx="91.08" cy="105.6" r="6.6" fill="#B5F8FE"/>
<circle cx="91.08" cy="125.4" r="6.6" fill="#B5F8FE"/>
<circle cx="112.2" cy="6.6" r="6.6" fill="#B5F8FE"/>
<circle cx="112.2" cy="26.4" r="6.6" fill="#B5F8FE"/>
<circle cx="112.2" cy="46.2" r="6.6" fill="#B5F8FE"/>
<circle cx="112.2" cy="66" r="6.6" fill="#B5F8FE"/>
<circle cx="112.2" cy="85.8" r="6.6" fill="#B5F8FE"/>
<circle cx="112.2" cy="105.6" r="6.6" fill="#B5F8FE"/>
<circle cx="112.2" cy="125.4" r="6.6" fill="#B5F8FE"/>
<circle cx="133.32" cy="6.6" r="6.6" fill="#B5F8FE"/>
<circle cx="133.32" cy="26.4" r="6.6" fill="#B5F8FE"/>
<circle cx="133.32" cy="46.2" r="6.6" fill="#B5F8FE"/>
<circle cx="133.32" cy="66" r="6.6" fill="#B5F8FE"/>
<circle cx="133.32" cy="85.8" r="6.6" fill="#B5F8FE"/>
<circle cx="133.32" cy="105.6" r="6.6" fill="#B5F8FE"/>
<circle cx="133.32" cy="125.4" r="6.6" fill="#B5F8FE"/>
</svg>
